<svg xmlns="http://www.w3.org/2000/svg" width="1200" height="630" viewBox="0 0 1200 630">
  <!-- Background -->
  <rect width="1200" height="630" fill="#E8F5E9"/>
  <!-- Decorative circles -->
  <circle cx="1050" cy="80" r="220" fill="#8FBC8F" opacity="0.2"/>
  <circle cx="150" cy="550" r="180" fill="#4A7C59" opacity="0.12"/>
  <!-- Main card -->
  <rect x="60" y="60" width="1080" height="510" rx="32" fill="white" opacity="0.75"/>
  <!-- Logo circle -->
  <circle cx="190" cy="200" r="72" fill="#2D5A3D"/>
  <text x="190" y="222" font-family="Georgia, serif" font-size="64" font-weight="bold" fill="white" text-anchor="middle">N</text>
  <path d="M242 140 C250 130 265 134 262 146 C259 158 244 155 240 149 C236 143 236 143 242 140Z" fill="#8FBC8F"/>
  <!-- Brand name -->
  <text x="290" y="185" font-family="Georgia, serif" font-size="62" font-weight="bold" fill="#2D5A3D">NutriHeals</text>
  <text x="292" y="230" font-family="Arial, sans-serif" font-size="26" fill="#5A5A5A">by Dt. Yogita Bansal</text>
  <!-- Divider -->
  <rect x="100" y="270" width="1000" height="2" fill="#2D5A3D" opacity="0.12"/>
  <!-- Headline -->
  <text x="600" y="345" font-family="Georgia, serif" font-size="46" font-weight="bold" fill="#1A1A1A" text-anchor="middle">Your Path to Healthy Living</text>
  <text x="600" y="400" font-family="Arial, sans-serif" font-size="26" fill="#5A5A5A" text-anchor="middle">Personalized diet plans for Weight Loss, PCOS/PCOD &amp; Diabetes</text>
  <!-- Tags -->
  <rect x="230" y="440" width="220" height="48" rx="24" fill="#2D5A3D" opacity="0.1"/>
  <text x="340" y="471" font-family="Arial, sans-serif" font-size="20" fill="#2D5A3D" text-anchor="middle">🥗 Clinical Dietitian</text>
  <rect x="490" y="440" width="220" height="48" rx="24" fill="#2D5A3D" opacity="0.1"/>
  <text x="600" y="471" font-family="Arial, sans-serif" font-size="20" fill="#2D5A3D" text-anchor="middle">📍 Pinjore, Haryana</text>
  <rect x="750" y="440" width="220" height="48" rx="24" fill="#2D5A3D" opacity="0.1"/>
  <text x="860" y="471" font-family="Arial, sans-serif" font-size="20" fill="#2D5A3D" text-anchor="middle">⭐ 5000+ Clients</text>
  <!-- URL -->
  <text x="600" y="548" font-family="Arial, sans-serif" font-size="22" fill="#8A8A8A" text-anchor="middle">www.nutriheals.in</text>
</svg>
